<svg id="Calque_1" data-name="Calque 1" xmlns="http://www.w3.org/2000/svg" viewBox="0 0 689 689"><defs><style>.cls-1,.cls-2{fill:none;stroke:#1d1d1b;stroke-width:4px;}.cls-1{stroke-miterlimit:10;}.cls-3{font-size:79.04px;fill:#1d1d1b;font-family:JustMeAgainDownHere, Just Me Again Down Here;}</style></defs><path class="cls-1" d="M358.2,553.41A209.69,209.69,0,0,0,527.45,446.9l-223-39.34Z"/><circle class="cls-2" cx="344.86" cy="344.51" r="239.23" transform="translate(-142.6 344.76) rotate(-45)"/><circle class="cls-2" cx="344.86" cy="344.51" r="340.41" transform="translate(-142.6 344.76) rotate(-45)"/><path class="cls-1" d="M157.7,250.77A209.53,209.53,0,0,0,164,449.84L310.61,277.75Z"/><path class="cls-1" d="M333.92,135.47A209.66,209.66,0,0,0,162.28,242.13l223.85,39.51Z"/><path class="cls-1" d="M532,438.27a209.49,209.49,0,0,0-6.26-199l-146.64,172Z"/><path class="cls-1" d="M520.64,231A209.53,209.53,0,0,0,343.7,135.2L420,348.94Z"/><path class="cls-1" d="M169.14,458.17A209.5,209.5,0,0,0,348.43,553.8L269.75,340.07Z"/><text class="cls-3" transform="matrix(0.51, -0.88, 0.86, 0.5, 89.63, 226.84)">M</text><text class="cls-3" transform="translate(106.82 197.67) rotate(-54.1) scale(1.02 1)">a</text><text class="cls-3" transform="matrix(0.67, -0.77, 0.75, 0.66, 119.86, 179.36)">r</text><text class="cls-3" transform="translate(138.84 158) rotate(-44.92) scale(1.02 1)">i</text><text class="cls-3" transform="matrix(0.77, -0.67, 0.66, 0.75, 146.5, 150.02)">o</text><text class="cls-3" transform="matrix(0.83, -0.6, 0.59, 0.81, 164.92, 133.62)"> </text><text class="cls-3" transform="matrix(0.87, -0.54, 0.52, 0.85, 188.97, 116.55)">I</text><text class="cls-3" transform="translate(200.42 109.34) rotate(-28.1) scale(1.02 1)">v</text><text class="cls-3" transform="translate(219.14 99.27) rotate(-23.72) scale(1.02 1)">a</text><text class="cls-3" transform="translate(239.82 90.17) rotate(-19.33) scale(1.02 1)">n</text><text class="cls-3" transform="translate(259.94 82.99) rotate(-14.73) scale(1.02 1)">o</text><text class="cls-3" transform="translate(283.97 76.71) rotate(-10.16) scale(1.02 1)">v</text><text class="cls-3" transform="translate(305.13 73.05) rotate(-6.94) scale(1.02 1)">i</text><text class="cls-3" transform="matrix(1.02, -0.06, 0.06, 1, 316.12, 71.48)">c</text><text class="cls-3" transform="translate(340.37 69.86) rotate(1.74) scale(1.02 1)"> </text><text class="cls-3" transform="translate(369.46 70.49) rotate(8.04) scale(1.02 1)">P</text><text class="cls-3" transform="translate(404.55 75.71) rotate(13.76) scale(1.02 1)">h</text><text class="cls-3" transform="translate(426.48 81) rotate(18.48) scale(1.02 1)">o</text><text class="cls-3" transform="translate(449.95 88.72) rotate(23.69) scale(1.02 1)">t</text><text class="cls-3" transform="matrix(0.89, 0.49, -0.48, 0.88, 475.14, 99.79)">o</text><text class="cls-3" transform="matrix(0.85, 0.56, -0.55, 0.83, 496.84, 111.82)">g</text><text class="cls-3" transform="translate(514.28 123.09) rotate(38.39) scale(1.02 1)">r</text><text class="cls-3" transform="matrix(0.74, 0.7, -0.69, 0.73, 536.45, 140.76)">a</text><text class="cls-3" transform="translate(552.84 156.25) rotate(48.07) scale(1.02 1)">p</text><text class="cls-3" transform="translate(568.11 173.2) rotate(52.68) scale(1.02 1)">h</text><text class="cls-3" transform="translate(581.82 191.19) rotate(57.09) scale(1.02 1)">y</text></svg>